<svg id="Слой_1" data-name="Слой 1" xmlns="http://www.w3.org/2000/svg" viewBox="0 0 180.87 180.87"><defs><style>.cls-1{fill:#fff;}</style></defs><title>dot3</title><circle class="cls-1" cx="90.43" cy="15.73" r="15.73"/><circle class="cls-1" cx="90.43" cy="51.12" r="7.86"/><circle class="cls-1" cx="90.43" cy="74.71" r="3.93"/><circle class="cls-1" cx="90.43" cy="165.14" r="15.73"/><circle class="cls-1" cx="90.43" cy="129.75" r="7.86"/><circle class="cls-1" cx="90.43" cy="106.16" r="3.93"/><circle class="cls-1" cx="15.73" cy="90.43" r="15.73"/><circle class="cls-1" cx="51.12" cy="90.43" r="7.86"/><circle class="cls-1" cx="74.71" cy="90.43" r="3.93"/><circle class="cls-1" cx="165.14" cy="90.43" r="15.73"/><circle class="cls-1" cx="129.75" cy="90.43" r="7.86"/><circle class="cls-1" cx="106.16" cy="90.43" r="3.93"/><circle class="cls-1" cx="143.94" cy="143.94" r="15.73"/><circle class="cls-1" cx="118.91" cy="118.91" r="7.86"/><circle class="cls-1" cx="102.23" cy="102.23" r="3.93"/><circle class="cls-1" cx="143.94" cy="36.93" r="15.73"/><circle class="cls-1" cx="118.91" cy="61.96" r="7.86"/><circle class="cls-1" cx="102.23" cy="78.64" r="3.93"/><circle class="cls-1" cx="36.93" cy="36.93" r="15.73"/><circle class="cls-1" cx="61.96" cy="61.96" r="7.86"/><circle class="cls-1" cx="78.64" cy="78.64" r="3.93"/><circle class="cls-1" cx="36.93" cy="143.94" r="15.73"/><circle class="cls-1" cx="61.96" cy="118.91" r="7.86"/><circle class="cls-1" cx="78.64" cy="102.23" r="3.93"/><circle class="cls-1" cx="90.55" cy="90.32" r="1.97"/></svg>