<svg id="Слой_1" data-name="Слой 1" xmlns="http://www.w3.org/2000/svg" viewBox="0 0 194.12 39.1"><defs><style>.cls-1{fill:#fff;}</style></defs><title>dot1</title><circle class="cls-1" cx="19.55" cy="19.55" r="19.55"/><circle class="cls-1" cx="66.19" cy="19.55" r="19.55"/><circle class="cls-1" cx="89.51" cy="19.55" r="19.55"/><circle class="cls-1" cx="97.06" cy="19.55" r="19.55"/><circle class="cls-1" cx="97.74" cy="19.55" r="19.55"/><circle class="cls-1" cx="98.43" cy="19.55" r="19.55"/><circle class="cls-1" cx="99.12" cy="19.55" r="19.55"/><circle class="cls-1" cx="99.8" cy="19.55" r="19.55"/><circle class="cls-1" cx="100.49" cy="19.55" r="19.55"/><circle class="cls-1" cx="101.17" cy="19.55" r="19.55"/><circle class="cls-1" cx="101.86" cy="19.55" r="19.55"/><circle class="cls-1" cx="102.55" cy="19.55" r="19.55"/><circle class="cls-1" cx="103.23" cy="19.55" r="19.55"/><circle class="cls-1" cx="103.92" cy="19.55" r="19.55"/><circle class="cls-1" cx="104.6" cy="19.55" r="19.55"/><circle class="cls-1" cx="105.29" cy="19.55" r="19.55"/><circle class="cls-1" cx="105.98" cy="19.55" r="19.55"/><circle class="cls-1" cx="106.66" cy="19.55" r="19.55"/><circle class="cls-1" cx="107.35" cy="19.55" r="19.55"/><circle class="cls-1" cx="108.03" cy="19.55" r="19.55"/><circle class="cls-1" cx="108.72" cy="19.55" r="19.55"/><circle class="cls-1" cx="109.41" cy="19.55" r="19.55"/><circle class="cls-1" cx="110.09" cy="19.55" r="19.55"/><circle class="cls-1" cx="110.78" cy="19.55" r="19.55"/><circle class="cls-1" cx="111.46" cy="19.55" r="19.55"/><circle class="cls-1" cx="112.15" cy="19.55" r="19.55"/><circle class="cls-1" cx="112.83" cy="19.55" r="19.55"/><circle class="cls-1" cx="113.52" cy="19.55" r="19.55"/><circle class="cls-1" cx="114.21" cy="19.55" r="19.55"/><circle class="cls-1" cx="114.89" cy="19.55" r="19.55"/><circle class="cls-1" cx="115.58" cy="19.55" r="19.55"/><circle class="cls-1" cx="116.26" cy="19.55" r="19.55"/><circle class="cls-1" cx="116.95" cy="19.55" r="19.55"/><circle class="cls-1" cx="117.64" cy="19.55" r="19.55"/><circle class="cls-1" cx="118.32" cy="19.55" r="19.55"/><circle class="cls-1" cx="119.01" cy="19.55" r="19.55"/><circle class="cls-1" cx="119.69" cy="19.55" r="19.55"/><circle class="cls-1" cx="120.38" cy="19.55" r="19.55"/><circle class="cls-1" cx="121.07" cy="19.55" r="19.55"/><circle class="cls-1" cx="121.75" cy="19.55" r="19.55"/><circle class="cls-1" cx="122.44" cy="19.55" r="19.55"/><circle class="cls-1" cx="123.12" cy="19.55" r="19.55"/><circle class="cls-1" cx="123.81" cy="19.55" r="19.55"/><circle class="cls-1" cx="124.5" cy="19.55" r="19.55"/><circle class="cls-1" cx="125.18" cy="19.55" r="19.55"/><circle class="cls-1" cx="125.87" cy="19.55" r="19.55"/><circle class="cls-1" cx="126.55" cy="19.55" r="19.55"/><circle class="cls-1" cx="127.24" cy="19.55" r="19.55"/><circle class="cls-1" cx="127.93" cy="19.55" r="19.55"/><circle class="cls-1" cx="128.61" cy="19.55" r="19.55"/><circle class="cls-1" cx="129.3" cy="19.55" r="19.55"/><circle class="cls-1" cx="129.98" cy="19.55" r="19.55"/><circle class="cls-1" cx="130.67" cy="19.55" r="19.55"/><circle class="cls-1" cx="131.35" cy="19.55" r="19.55"/><circle class="cls-1" cx="132.04" cy="19.55" r="19.55"/><circle class="cls-1" cx="132.73" cy="19.55" r="19.55"/><circle class="cls-1" cx="133.41" cy="19.55" r="19.55"/><circle class="cls-1" cx="134.1" cy="19.55" r="19.55"/><circle class="cls-1" cx="134.78" cy="19.55" r="19.55"/><circle class="cls-1" cx="135.47" cy="19.55" r="19.55"/><circle class="cls-1" cx="136.16" cy="19.55" r="19.55"/><circle class="cls-1" cx="136.84" cy="19.55" r="19.55"/><circle class="cls-1" cx="137.53" cy="19.55" r="19.55"/><circle class="cls-1" cx="138.21" cy="19.55" r="19.55"/><circle class="cls-1" cx="138.9" cy="19.55" r="19.55"/><circle class="cls-1" cx="139.59" cy="19.55" r="19.55"/><circle class="cls-1" cx="140.27" cy="19.55" r="19.55"/><circle class="cls-1" cx="140.96" cy="19.55" r="19.55"/><circle class="cls-1" cx="141.64" cy="19.55" r="19.55"/><circle class="cls-1" cx="142.33" cy="19.55" r="19.55"/><circle class="cls-1" cx="143.02" cy="19.55" r="19.55"/><circle class="cls-1" cx="143.7" cy="19.55" r="19.55"/><circle class="cls-1" cx="144.39" cy="19.55" r="19.55"/><circle class="cls-1" cx="145.07" cy="19.55" r="19.55"/><circle class="cls-1" cx="145.76" cy="19.55" r="19.55"/><circle class="cls-1" cx="146.45" cy="19.55" r="19.55"/><circle class="cls-1" cx="147.13" cy="19.55" r="19.55"/><circle class="cls-1" cx="147.82" cy="19.55" r="19.55"/><circle class="cls-1" cx="148.5" cy="19.55" r="19.55"/><circle class="cls-1" cx="149.19" cy="19.55" r="19.55"/><circle class="cls-1" cx="149.88" cy="19.55" r="19.55"/><circle class="cls-1" cx="150.56" cy="19.55" r="19.55"/><circle class="cls-1" cx="151.25" cy="19.55" r="19.55"/><circle class="cls-1" cx="151.93" cy="19.55" r="19.55"/><circle class="cls-1" cx="152.62" cy="19.55" r="19.55"/><circle class="cls-1" cx="153.3" cy="19.55" r="19.55"/><circle class="cls-1" cx="153.99" cy="19.55" r="19.55"/><circle class="cls-1" cx="154.68" cy="19.55" r="19.55"/><circle class="cls-1" cx="155.36" cy="19.55" r="19.55"/><circle class="cls-1" cx="156.05" cy="19.55" r="19.55"/><circle class="cls-1" cx="156.73" cy="19.55" r="19.55"/><circle class="cls-1" cx="157.42" cy="19.55" r="19.55"/><circle class="cls-1" cx="158.11" cy="19.55" r="19.55"/><circle class="cls-1" cx="158.79" cy="19.55" r="19.55"/><circle class="cls-1" cx="159.48" cy="19.55" r="19.55"/><circle class="cls-1" cx="160.16" cy="19.55" r="19.55"/><circle class="cls-1" cx="160.85" cy="19.55" r="19.55"/><circle class="cls-1" cx="161.54" cy="19.55" r="19.55"/><circle class="cls-1" cx="162.22" cy="19.55" r="19.55"/><circle class="cls-1" cx="162.91" cy="19.55" r="19.55"/><circle class="cls-1" cx="163.59" cy="19.55" r="19.55"/><circle class="cls-1" cx="164.28" cy="19.55" r="19.55"/><circle class="cls-1" cx="164.97" cy="19.55" r="19.55"/><circle class="cls-1" cx="165.65" cy="19.55" r="19.55"/><circle class="cls-1" cx="166.34" cy="19.55" r="19.55"/><circle class="cls-1" cx="167.02" cy="19.55" r="19.55"/><circle class="cls-1" cx="167.71" cy="19.55" r="19.55"/><circle class="cls-1" cx="168.4" cy="19.55" r="19.55"/><circle class="cls-1" cx="169.08" cy="19.55" r="19.55"/><circle class="cls-1" cx="169.77" cy="19.55" r="19.55"/><circle class="cls-1" cx="170.45" cy="19.55" r="19.55"/><circle class="cls-1" cx="171.14" cy="19.55" r="19.55"/><circle class="cls-1" cx="171.82" cy="19.55" r="19.55"/><circle class="cls-1" cx="172.51" cy="19.55" r="19.55"/><circle class="cls-1" cx="173.2" cy="19.55" r="19.55"/><circle class="cls-1" cx="173.88" cy="19.55" r="19.55"/><circle class="cls-1" cx="174.57" cy="19.55" r="19.55"/></svg>